<svg width="128.000000" height="128.000000" viewBox="0 0 128 128" fill="none" xmlns="http://www.w3.org/2000/svg" xmlns:xlink="http://www.w3.org/1999/xlink">
	<desc>
			Created with Pixso.
	</desc>
	<defs>
		<filter id="filter_29_21_dd" x="25.500000" y="26.500000" width="73.500000" height="77.000000" filterUnits="userSpaceOnUse" color-interpolation-filters="sRGB">
			<feFlood flood-opacity="0" result="BackgroundImageFix"/>
			<feColorMatrix in="SourceAlpha" type="matrix" values="0 0 0 0 0 0 0 0 0 0 0 0 0 0 0 0 0 0 127 0" result="hardAlpha"/>
			<feOffset dx="0" dy="1"/>
			<feGaussianBlur stdDeviation="0.333333"/>
			<feComposite in2="hardAlpha" operator="out" k2="-1" k3="1"/>
			<feColorMatrix type="matrix" values="0 0 0 0 0 0 0 0 0 0 0 0 0 0 0 0 0 0 0.25 0"/>
			<feBlend mode="normal" in2="BackgroundImageFix" result="effect_dropShadow_1"/>
			<feBlend mode="normal" in="SourceGraphic" in2="effect_dropShadow_1" result="shape"/>
		</filter>
		<linearGradient x1="92.375008" y1="58.499958" x2="26.500000" y2="58.250004" id="paint_linear_29_16_0" gradientUnits="userSpaceOnUse">
			<stop stop-color="#FA884E"/>
			<stop offset="1.000000" stop-color="#FBB453"/>
		</linearGradient>
		<linearGradient x1="28.249985" y1="61.250000" x2="92.250084" y2="88.750015" id="paint_linear_29_17_0" gradientUnits="userSpaceOnUse">
			<stop stop-color="#F85374"/>
			<stop offset="1.000000" stop-color="#8B58F4"/>
		</linearGradient>
		<linearGradient x1="93.249985" y1="73.500015" x2="49.507027" y2="81.000023" id="paint_linear_29_18_0" gradientUnits="userSpaceOnUse">
			<stop stop-color="#5D9DF6"/>
			<stop offset="1.000000" stop-color="#9377E3"/>
		</linearGradient>
	</defs>
	<rect id="CodeLume-128" width="128.000000" height="128.000000" fill="#EB248B" fill-opacity="0"/>
	<circle id="椭圆 4" cx="64.000000" cy="64.000000" r="37.500000" fill="url(#paint_linear_29_16_0)" fill-opacity="1.000000"/>
	<path id="椭圆 4" d="M101.12 107.75C89.87 109.75 98.24 115.03 87.12 107.75C80.83 103.62 71.84 107.75 59.37 107.75C45.94 107.75 37.71 92.89 28.37 97.25C22.57 99.94 25.3 86.63 20.87 91C18.14 93.68 21.54 81.19 18.12 85.75C13.07 92.47 18.12 104.83 18.12 97.25C18.12 62.76 29.51 45.25 63.99 45.25C73.81 45.25 68.86 54.89 68.87 59.25C68.88 63.14 81.41 62.18 87.12 65.25C101.12 72.75 101.12 91.86 101.12 107.75Z" fill="url(#paint_linear_29_17_0)" fill-opacity="1.000000" fill-rule="evenodd"/>
	<path id="椭圆 5" d="M60 54.5C76.75 76.25 51.48 65.5 86 65.5C120.51 65.5 103 -5.02 103 29.5C103 64.01 117.26 86.75 82.75 86.75C48.23 86.75 40.5 70 60 54.5Z" fill="url(#paint_linear_29_18_0)" fill-opacity="1.000000" fill-rule="evenodd"/>
	<path id="减去顶层" d="M38.125 12.5L89.875 12.5C104.027 12.5 115.5 23.9727 115.5 38.125L115.5 89.875C115.5 104.027 104.027 115.5 89.875 115.5L38.125 115.5C23.9727 115.5 12.5 104.027 12.5 89.875L12.5 38.125C12.5 23.9727 23.9727 12.5 38.125 12.5ZM64 26.5C43.2893 26.5 26.5 43.2893 26.5 64C26.5 84.7107 43.2893 101.5 64 101.5C76.7279 101.5 87.9747 95.159 94.7538 85.4638C96.1543 83.8257 97 81.6991 97 79.375C97 74.1973 92.8027 70 87.625 70C84.2817 70 81.3472 71.75 79.6875 74.384L79.6347 74.3535C76.277 79.4139 70.5281 82.75 64 82.75C53.6447 82.75 45.25 74.3553 45.25 64C45.25 53.6447 53.6447 45.25 64 45.25C70.7006 45.25 76.5801 48.7647 79.8958 54.0511C81.2639 57.5342 84.6565 60 88.625 60C93.8027 60 98 55.8027 98 50.625C98 49.1008 97.6362 47.6615 96.9908 46.3893L97.0864 46.3339C90.7708 34.5301 78.3231 26.5 64 26.5Z" clip-rule="evenodd" fill="#FFFFFF" fill-opacity="1.000000" fill-rule="evenodd"/>
</svg>
